<?xml version="1.0" encoding="UTF-8" standalone="no"?>
<!-- Created with Inkscape (http://www.inkscape.org/) -->

<svg
   xmlns:dc="http://purl.org/dc/elements/1.1/"
   xmlns:cc="http://creativecommons.org/ns#"
   xmlns:rdf="http://www.w3.org/1999/02/22-rdf-syntax-ns#"
   xmlns:svg="http://www.w3.org/2000/svg"
   xmlns="http://www.w3.org/2000/svg"
   xmlns:sodipodi="http://sodipodi.sourceforge.net/DTD/sodipodi-0.dtd"
   xmlns:inkscape="http://www.inkscape.org/namespaces/inkscape"
   width="24.924385mm"
   height="5.3302422mm"
   viewBox="0 0 24.924385 5.3302422"
   version="1.1"
   id="svg4256"
   inkscape:version="0.92.4 (5da689c313, 2019-01-14)"
   sodipodi:docname="urovo.svg">
  <defs
     id="defs4250" />
  <sodipodi:namedview
     id="base"
     pagecolor="#ffffff"
     bordercolor="#666666"
     borderopacity="1.0"
     inkscape:pageopacity="0.0"
     inkscape:pageshadow="2"
     inkscape:zoom="2.8"
     inkscape:cx="70.211551"
     inkscape:cy="-61.003951"
     inkscape:document-units="mm"
     inkscape:current-layer="g4230"
     showgrid="false"
     fit-margin-top="0"
     fit-margin-left="0"
     fit-margin-right="0"
     fit-margin-bottom="0"
     inkscape:window-width="1920"
     inkscape:window-height="1001"
     inkscape:window-x="-9"
     inkscape:window-y="-9"
     inkscape:window-maximized="1" />
  <metadata
     id="metadata4253">
    <rdf:RDF>
      <cc:Work
         rdf:about="">
        <dc:format>image/svg+xml</dc:format>
        <dc:type
           rdf:resource="http://purl.org/dc/dcmitype/StillImage" />
        <dc:title></dc:title>
      </cc:Work>
    </rdf:RDF>
  </metadata>
  <g
     inkscape:label="Layer 1"
     inkscape:groupmode="layer"
     id="layer1"
     transform="translate(-97.150903,-199.95146)">
    <g
       transform="matrix(0.35277777,0,0,-0.35277777,89.330102,378.38007)"
       id="g4230">
      <g
         id="g47">
        <path
           d="m 91.4468,502.7357 -0.4167,0.9746 h -0.6276 v -0.9746 h -0.2812 v 2.2542 h 0.8481 c 0.2209,0 0.3901,-0.0451 0.5075,-0.135 0.1612,-0.1202 0.242,-0.2857 0.242,-0.4975 0,-0.1349 -0.0374,-0.2554 -0.1119,-0.3617 -0.0749,-0.106 -0.1755,-0.178 -0.3048,-0.2157 l 0.4411,-1.0443 z m -0.5148,3.017 c 0.5199,0 0.9922,-0.2124 1.3343,-0.5545 0,0 0,-3e-4 3e-4,-3e-4 l -3e-4,3e-4 c 0,0 0,-3e-4 3e-4,-3e-4 0.3421,-0.3421 0.5544,-0.8144 0.5544,-1.334 0,-0.5198 -0.2126,-0.9924 -0.5547,-1.3345 h 3e-4 c -0.3419,-0.3419 -0.8144,-0.5542 -1.3346,-0.5542 -0.5198,0 -0.9921,0.2123 -1.3342,0.5542 h 2e-4 c -0.3421,0.3421 -0.5544,0.8147 -0.5544,1.3345 0,0.5196 0.212,0.9919 0.5542,1.334 0,0 2e-4,3e-4 2e-4,3e-4 l -2e-4,-3e-4 c 0,0 2e-4,3e-4 2e-4,3e-4 0.3422,0.3421 0.8144,0.5545 1.334,0.5545 z m 0,-0.1885 c -0.4683,0 -0.8934,-0.1908 -1.2013,-0.4987 l -3e-4,-2e-4 c -0.3078,-0.3079 -0.4989,-0.7331 -0.4989,-1.2014 0,-0.4685 0.1911,-0.8934 0.4989,-1.2013 h 3e-4 c 0.3081,-0.3081 0.733,-0.4992 1.2013,-0.4992 0.4683,0 0.8935,0.1911 1.2016,0.4992 h 3e-4 c 0.3079,0.3079 0.4986,0.7328 0.4986,1.2013 0,0.4683 -0.1907,0.8935 -0.4986,1.2014 l -3e-4,2e-4 c -0.3078,0.3079 -0.733,0.4987 -1.2016,0.4987 z m 0.0031,-1.6234 v 0 c 0.0908,0 0.1656,0.008 0.224,0.0238 0.0584,0.0158 0.1128,0.0496 0.1627,0.1012 0.0768,0.0768 0.1151,0.1754 0.1151,0.2965 0,0.1406 -0.0522,0.246 -0.1559,0.3163 -0.072,0.0465 -0.1758,0.0697 -0.3116,0.0697 h -0.5669 v -0.8075 z"
           style="fill:#00b4de;fill-opacity:1;fill-rule:nonzero;stroke:none"
           id="path354"
           inkscape:connector-curvature="0" />
        <path
           d="m 81.6851,505.7819 c 4.1712,0 7.5544,-3.3832 7.5544,-7.5547 0,-4.1717 -3.3832,-7.5546 -7.5544,-7.5546 -4.1714,0 -7.5546,3.3829 -7.5546,7.5546 0,4.1715 3.3832,7.5547 7.5546,7.5547 z m 0,-3.0218 c 2.3466,0 4.2495,-2.0301 4.2495,-4.5329 0,-2.5029 -1.9029,-4.5328 -4.2495,-4.5328 -2.3468,0 -4.2497,2.0299 -4.2497,4.5328 0,2.5028 1.9029,4.5329 4.2497,4.5329"
           style="fill:#00b4de;fill-opacity:1;fill-rule:evenodd;stroke:none"
           id="path356"
           inkscape:connector-curvature="0" />
        <path
           d="m 52.8041,505.7819 c 4.1711,0 7.5543,-3.3832 7.5543,-7.5547 0,-4.1717 -3.3832,-7.5546 -7.5543,-7.5546 -4.1715,0 -7.5547,3.3829 -7.5547,7.5546 0,4.1715 3.3832,7.5547 7.5547,7.5547 z m 0,-3.0218 c 2.3465,0 4.2494,-2.0301 4.2494,-4.5329 0,-2.5029 -1.9029,-4.5328 -4.2494,-4.5328 -2.3466,0 -4.2497,2.0299 -4.2497,4.5328 0,2.5028 1.9031,4.5329 4.2497,4.5329"
           style="fill:#00b4de;fill-opacity:1;fill-rule:evenodd;stroke:none"
           id="path358"
           inkscape:connector-curvature="0" />
        <path
           d="m 22.1692,505.7819 h 3.3052 v -7.9322 c 0,-2.2944 1.7337,-4.1551 3.8716,-4.1551 2.1381,0 3.8718,1.8607 3.8718,4.1551 v 7.9322 h 3.3052 v -7.9322 c 0,-3.9634 -3.2139,-7.1771 -7.177,-7.1771 -3.9629,0 -7.1768,3.2137 -7.1768,7.1771 z"
           style="fill:#00b4de;fill-opacity:1;fill-rule:evenodd;stroke:none"
           id="path360"
           inkscape:connector-curvature="0" />
        <path
           d="m 45.4425,502.7601 c -2.1379,0 -3.8719,-1.8609 -3.8719,-4.155 v -7.5546 h -3.3052 v 7.5546 c 0,3.9631 3.214,7.1768 7.1771,7.1768 z"
           style="fill:#00b4de;fill-opacity:1;fill-rule:evenodd;stroke:none"
           id="path362"
           inkscape:connector-curvature="0" />
        <path
           d="m 66.5807,493.8452 c -0.8336,-0.3714 -1.2087,-1.3485 -0.8376,-2.1819 0.371,-0.8333 1.3479,-1.2084 2.1815,-0.8373 0.8334,0.371 1.2084,1.3479 0.8374,2.1812 -0.3711,0.834 -1.3482,1.209 -2.1813,0.838"
           style="fill:#00b4de;fill-opacity:1;fill-rule:evenodd;stroke:none"
           id="path364"
           inkscape:connector-curvature="0" />
        <path
           d="m 59.6248,505.404 6.1183,-13.7407 3.0189,1.3439 -5.5196,12.3968 z"
           style="fill:#00b4de;fill-opacity:1;fill-rule:evenodd;stroke:none"
           id="path366"
           inkscape:connector-curvature="0" />
        <path
           d="m 68.7039,491.5692 c -0.3388,-0.7619 -1.2325,-1.1052 -1.9945,-0.7656 -0.7622,0.339 -1.1046,1.2328 -0.7656,1.9944 l 5.6129,12.606 h 3.3074 z"
           style="fill:#00b4de;fill-opacity:1;fill-rule:evenodd;stroke:none"
           id="path368"
           inkscape:connector-curvature="0" />
        <flowRoot
           style="font-style:normal;font-weight:normal;font-size:40px;line-height:1.25;font-family:sans-serif;letter-spacing:0px;word-spacing:0px;fill:#000000;fill-opacity:1;stroke:none"
           id="flowRoot4309"
           xml:space="preserve"><flowRegion
             id="flowRegion4311"><rect
               y="745.28754"
               x="347.32144"
               height="56.339287"
               width="112.14286"
               id="rect4313" /></flowRegion><flowPara
             id="flowPara4315" /></flowRoot>      </g>
    </g>
  </g>
</svg>
